<mxfile host="app.diagrams.net" modified="2022-01-21T04:37:21.085Z" agent="5.0 (Windows)" etag="C58Uzs0RFcyGTKNSaBfy" version="16.2.7" type="github">
  <diagram id="Arsce1lhnxzf3GvLfII_" name="第1頁">
    <mxGraphModel dx="1422" dy="744" grid="1" gridSize="10" guides="1" tooltips="1" connect="1" arrows="1" fold="1" page="1" pageScale="1" pageWidth="1169" pageHeight="827" math="0" shadow="0">
      <root>
        <mxCell id="0" />
        <mxCell id="1" parent="0" />
        <mxCell id="FeWT-kClf4YKD-GhPPuV-12" value="participants" style="swimlane;fontStyle=0;childLayout=stackLayout;horizontal=1;startSize=40;horizontalStack=0;resizeParent=1;resizeParentMax=0;resizeLast=0;collapsible=1;marginBottom=0;align=left;fontSize=16;fontColor=#FFFFFF;fillColor=#FF6602;spacing=0;strokeColor=#FFFFFF;strokeWidth=2;spacingLeft=10;" parent="1" vertex="1">
          <mxGeometry x="150" y="220" width="130" height="160" as="geometry">
            <mxRectangle x="150" y="220" width="110" height="40" as="alternateBounds" />
          </mxGeometry>
        </mxCell>
        <mxCell id="FeWT-kClf4YKD-GhPPuV-20" value="PK : id" style="text;strokeColor=#FFFFFF;fillColor=#FDE5CD;spacingLeft=10;spacingRight=0;overflow=hidden;rotatable=0;points=[[0,0.5],[1,0.5]];portConstraint=eastwest;fontSize=16;strokeWidth=2;perimeterSpacing=0;sketch=0;shadow=0;rounded=0;glass=0;spacing=0;fontStyle=0" parent="FeWT-kClf4YKD-GhPPuV-12" vertex="1">
          <mxGeometry y="40" width="130" height="30" as="geometry" />
        </mxCell>
        <mxCell id="FeWT-kClf4YKD-GhPPuV-13" value="name" style="text;strokeColor=#FFFFFF;fillColor=#FDE5CD;spacingLeft=10;spacingRight=0;overflow=hidden;rotatable=0;points=[[0,0.5],[1,0.5]];portConstraint=eastwest;fontSize=16;strokeWidth=2;sketch=0;shadow=0;rounded=0;glass=0;spacing=0;" parent="FeWT-kClf4YKD-GhPPuV-12" vertex="1">
          <mxGeometry y="70" width="130" height="30" as="geometry" />
        </mxCell>
        <mxCell id="AC0keNQ9pMUgS8oNDT1f-38" value="email" style="text;strokeColor=#FFFFFF;fillColor=#FDE5CD;spacingLeft=10;spacingRight=0;overflow=hidden;rotatable=0;points=[[0,0.5],[1,0.5]];portConstraint=eastwest;fontSize=16;strokeWidth=2;sketch=0;shadow=0;rounded=0;glass=0;spacing=0;" vertex="1" parent="FeWT-kClf4YKD-GhPPuV-12">
          <mxGeometry y="100" width="130" height="30" as="geometry" />
        </mxCell>
        <mxCell id="AC0keNQ9pMUgS8oNDT1f-43" value="tel_no" style="text;strokeColor=#FFFFFF;fillColor=#FDE5CD;spacingLeft=10;spacingRight=0;overflow=hidden;rotatable=0;points=[[0,0.5],[1,0.5]];portConstraint=eastwest;fontSize=16;strokeWidth=2;sketch=0;shadow=0;rounded=0;glass=0;spacing=0;" vertex="1" parent="FeWT-kClf4YKD-GhPPuV-12">
          <mxGeometry y="130" width="130" height="30" as="geometry" />
        </mxCell>
        <mxCell id="FeWT-kClf4YKD-GhPPuV-21" value="joins" style="swimlane;fontStyle=0;childLayout=stackLayout;horizontal=1;startSize=40;horizontalStack=0;resizeParent=1;resizeParentMax=0;resizeLast=0;collapsible=1;marginBottom=0;align=left;fontSize=16;fontColor=#FFFFFF;fillColor=#FF6602;spacing=0;strokeColor=#FFFFFF;strokeWidth=2;spacingLeft=10;" parent="1" vertex="1">
          <mxGeometry x="380" y="220" width="150" height="130" as="geometry">
            <mxRectangle x="150" y="220" width="110" height="40" as="alternateBounds" />
          </mxGeometry>
        </mxCell>
        <mxCell id="FeWT-kClf4YKD-GhPPuV-22" value="PK : id" style="text;strokeColor=#FFFFFF;fillColor=#FDE5CD;spacingLeft=10;spacingRight=0;overflow=hidden;rotatable=0;points=[[0,0.5],[1,0.5]];portConstraint=eastwest;fontSize=16;strokeWidth=2;perimeterSpacing=0;sketch=0;shadow=0;rounded=0;glass=0;spacing=0;fontStyle=0" parent="FeWT-kClf4YKD-GhPPuV-21" vertex="1">
          <mxGeometry y="40" width="150" height="30" as="geometry" />
        </mxCell>
        <mxCell id="FeWT-kClf4YKD-GhPPuV-57" value="FK : participant_id" style="text;strokeColor=#FFFFFF;fillColor=#FDE5CD;spacingLeft=10;spacingRight=0;overflow=hidden;rotatable=0;points=[[0,0.5],[1,0.5]];portConstraint=eastwest;fontSize=16;strokeWidth=2;sketch=0;shadow=0;rounded=0;glass=0;spacing=0;" parent="FeWT-kClf4YKD-GhPPuV-21" vertex="1">
          <mxGeometry y="70" width="150" height="30" as="geometry" />
        </mxCell>
        <mxCell id="FeWT-kClf4YKD-GhPPuV-51" value="FK : event_id" style="text;strokeColor=#FFFFFF;fillColor=#FDE5CD;spacingLeft=10;spacingRight=0;overflow=hidden;rotatable=0;points=[[0,0.5],[1,0.5]];portConstraint=eastwest;fontSize=16;strokeWidth=2;sketch=0;shadow=0;rounded=0;glass=0;spacing=0;" parent="FeWT-kClf4YKD-GhPPuV-21" vertex="1">
          <mxGeometry y="100" width="150" height="30" as="geometry" />
        </mxCell>
        <mxCell id="FeWT-kClf4YKD-GhPPuV-58" style="edgeStyle=orthogonalEdgeStyle;rounded=0;orthogonalLoop=1;jettySize=auto;html=1;fontSize=16;fontColor=#FFFFFF;strokeWidth=3;strokeColor=#33BFCC;entryX=0;entryY=0.5;entryDx=0;entryDy=0;" parent="1" source="FeWT-kClf4YKD-GhPPuV-20" target="FeWT-kClf4YKD-GhPPuV-57" edge="1">
          <mxGeometry relative="1" as="geometry" />
        </mxCell>
        <mxCell id="FeWT-kClf4YKD-GhPPuV-59" value="&lt;div&gt;1&lt;/div&gt;" style="text;html=1;align=center;verticalAlign=middle;resizable=0;points=[];autosize=1;strokeColor=none;fillColor=none;fontSize=16;fontColor=#000000;" parent="1" vertex="1">
          <mxGeometry x="290" y="250" width="20" height="20" as="geometry" />
        </mxCell>
        <mxCell id="FeWT-kClf4YKD-GhPPuV-60" value="M" style="text;html=1;align=center;verticalAlign=middle;resizable=0;points=[];autosize=1;strokeColor=none;fillColor=none;fontSize=16;fontColor=#000000;" parent="1" vertex="1">
          <mxGeometry x="340" y="280" width="30" height="20" as="geometry" />
        </mxCell>
        <mxCell id="AC0keNQ9pMUgS8oNDT1f-122" value="events" style="swimlane;fontStyle=0;childLayout=stackLayout;horizontal=1;startSize=40;horizontalStack=0;resizeParent=1;resizeParentMax=0;resizeLast=0;collapsible=1;marginBottom=0;align=left;fontSize=16;fontColor=#FFFFFF;fillColor=#FF6602;spacing=0;strokeColor=#FFFFFF;strokeWidth=2;spacingLeft=10;" vertex="1" parent="1">
          <mxGeometry x="610" y="220" width="130" height="190" as="geometry">
            <mxRectangle x="150" y="220" width="110" height="40" as="alternateBounds" />
          </mxGeometry>
        </mxCell>
        <mxCell id="AC0keNQ9pMUgS8oNDT1f-123" value="PK : id" style="text;strokeColor=#FFFFFF;fillColor=#FDE5CD;spacingLeft=10;spacingRight=0;overflow=hidden;rotatable=0;points=[[0,0.5],[1,0.5]];portConstraint=eastwest;fontSize=16;strokeWidth=2;perimeterSpacing=0;sketch=0;shadow=0;rounded=0;glass=0;spacing=0;fontStyle=0" vertex="1" parent="AC0keNQ9pMUgS8oNDT1f-122">
          <mxGeometry y="40" width="130" height="30" as="geometry" />
        </mxCell>
        <mxCell id="AC0keNQ9pMUgS8oNDT1f-124" value="time" style="text;strokeColor=#FFFFFF;fillColor=#FDE5CD;spacingLeft=10;spacingRight=0;overflow=hidden;rotatable=0;points=[[0,0.5],[1,0.5]];portConstraint=eastwest;fontSize=16;strokeWidth=2;sketch=0;shadow=0;rounded=0;glass=0;spacing=0;" vertex="1" parent="AC0keNQ9pMUgS8oNDT1f-122">
          <mxGeometry y="70" width="130" height="30" as="geometry" />
        </mxCell>
        <mxCell id="AC0keNQ9pMUgS8oNDT1f-125" value="topic" style="text;strokeColor=#FFFFFF;fillColor=#FDE5CD;spacingLeft=10;spacingRight=0;overflow=hidden;rotatable=0;points=[[0,0.5],[1,0.5]];portConstraint=eastwest;fontSize=16;strokeWidth=2;sketch=0;shadow=0;rounded=0;glass=0;spacing=0;" vertex="1" parent="AC0keNQ9pMUgS8oNDT1f-122">
          <mxGeometry y="100" width="130" height="30" as="geometry" />
        </mxCell>
        <mxCell id="AC0keNQ9pMUgS8oNDT1f-137" value="organizer" style="text;strokeColor=#FFFFFF;fillColor=#FDE5CD;spacingLeft=10;spacingRight=0;overflow=hidden;rotatable=0;points=[[0,0.5],[1,0.5]];portConstraint=eastwest;fontSize=16;strokeWidth=2;sketch=0;shadow=0;rounded=0;glass=0;spacing=0;" vertex="1" parent="AC0keNQ9pMUgS8oNDT1f-122">
          <mxGeometry y="130" width="130" height="30" as="geometry" />
        </mxCell>
        <mxCell id="AC0keNQ9pMUgS8oNDT1f-126" value="FK : venue_id" style="text;strokeColor=#FFFFFF;fillColor=#FDE5CD;spacingLeft=10;spacingRight=0;overflow=hidden;rotatable=0;points=[[0,0.5],[1,0.5]];portConstraint=eastwest;fontSize=16;strokeWidth=2;sketch=0;shadow=0;rounded=0;glass=0;spacing=0;" vertex="1" parent="AC0keNQ9pMUgS8oNDT1f-122">
          <mxGeometry y="160" width="130" height="30" as="geometry" />
        </mxCell>
        <mxCell id="AC0keNQ9pMUgS8oNDT1f-127" style="edgeStyle=orthogonalEdgeStyle;rounded=0;orthogonalLoop=1;jettySize=auto;html=1;fontSize=16;fontColor=#FFFFFF;strokeWidth=3;strokeColor=#33BFCC;exitX=0;exitY=0.5;exitDx=0;exitDy=0;entryX=1;entryY=0.5;entryDx=0;entryDy=0;" edge="1" parent="1" source="AC0keNQ9pMUgS8oNDT1f-123" target="FeWT-kClf4YKD-GhPPuV-51">
          <mxGeometry relative="1" as="geometry">
            <mxPoint x="290" y="285" as="sourcePoint" />
            <mxPoint x="390" y="345" as="targetPoint" />
          </mxGeometry>
        </mxCell>
        <mxCell id="AC0keNQ9pMUgS8oNDT1f-130" value="M" style="text;html=1;align=center;verticalAlign=middle;resizable=0;points=[];autosize=1;strokeColor=none;fillColor=none;fontSize=16;fontColor=#000000;" vertex="1" parent="1">
          <mxGeometry x="535" y="310" width="30" height="20" as="geometry" />
        </mxCell>
        <mxCell id="AC0keNQ9pMUgS8oNDT1f-131" value="1" style="text;html=1;align=center;verticalAlign=middle;resizable=0;points=[];autosize=1;strokeColor=none;fillColor=none;fontSize=16;fontColor=#000000;" vertex="1" parent="1">
          <mxGeometry x="580" y="250" width="20" height="20" as="geometry" />
        </mxCell>
        <mxCell id="AC0keNQ9pMUgS8oNDT1f-132" value="venues" style="swimlane;fontStyle=0;childLayout=stackLayout;horizontal=1;startSize=40;horizontalStack=0;resizeParent=1;resizeParentMax=0;resizeLast=0;collapsible=1;marginBottom=0;align=left;fontSize=16;fontColor=#FFFFFF;fillColor=#FF6602;spacing=0;strokeColor=#FFFFFF;strokeWidth=2;spacingLeft=10;" vertex="1" parent="1">
          <mxGeometry x="820" y="220" width="130" height="130" as="geometry">
            <mxRectangle x="150" y="220" width="110" height="40" as="alternateBounds" />
          </mxGeometry>
        </mxCell>
        <mxCell id="AC0keNQ9pMUgS8oNDT1f-133" value="PK : id" style="text;strokeColor=#FFFFFF;fillColor=#FDE5CD;spacingLeft=10;spacingRight=0;overflow=hidden;rotatable=0;points=[[0,0.5],[1,0.5]];portConstraint=eastwest;fontSize=16;strokeWidth=2;perimeterSpacing=0;sketch=0;shadow=0;rounded=0;glass=0;spacing=0;fontStyle=0" vertex="1" parent="AC0keNQ9pMUgS8oNDT1f-132">
          <mxGeometry y="40" width="130" height="30" as="geometry" />
        </mxCell>
        <mxCell id="AC0keNQ9pMUgS8oNDT1f-134" value="name    " style="text;strokeColor=#FFFFFF;fillColor=#FDE5CD;spacingLeft=10;spacingRight=0;overflow=hidden;rotatable=0;points=[[0,0.5],[1,0.5]];portConstraint=eastwest;fontSize=16;strokeWidth=2;sketch=0;shadow=0;rounded=0;glass=0;spacing=0;" vertex="1" parent="AC0keNQ9pMUgS8oNDT1f-132">
          <mxGeometry y="70" width="130" height="30" as="geometry" />
        </mxCell>
        <mxCell id="AC0keNQ9pMUgS8oNDT1f-135" value="address" style="text;strokeColor=#FFFFFF;fillColor=#FDE5CD;spacingLeft=10;spacingRight=0;overflow=hidden;rotatable=0;points=[[0,0.5],[1,0.5]];portConstraint=eastwest;fontSize=16;strokeWidth=2;sketch=0;shadow=0;rounded=0;glass=0;spacing=0;" vertex="1" parent="AC0keNQ9pMUgS8oNDT1f-132">
          <mxGeometry y="100" width="130" height="30" as="geometry" />
        </mxCell>
        <mxCell id="AC0keNQ9pMUgS8oNDT1f-139" style="edgeStyle=orthogonalEdgeStyle;rounded=0;orthogonalLoop=1;jettySize=auto;html=1;fontSize=16;fontColor=#FFFFFF;strokeWidth=3;strokeColor=#33BFCC;entryX=1;entryY=0.5;entryDx=0;entryDy=0;exitX=0;exitY=0.5;exitDx=0;exitDy=0;" edge="1" parent="1" source="AC0keNQ9pMUgS8oNDT1f-133" target="AC0keNQ9pMUgS8oNDT1f-126">
          <mxGeometry relative="1" as="geometry">
            <mxPoint x="800" y="290" as="sourcePoint" />
            <mxPoint x="745" y="335" as="targetPoint" />
          </mxGeometry>
        </mxCell>
        <mxCell id="AC0keNQ9pMUgS8oNDT1f-140" value="M" style="text;html=1;align=center;verticalAlign=middle;resizable=0;points=[];autosize=1;strokeColor=none;fillColor=none;fontSize=16;fontColor=#000000;" vertex="1" parent="1">
          <mxGeometry x="750" y="370" width="30" height="20" as="geometry" />
        </mxCell>
        <mxCell id="AC0keNQ9pMUgS8oNDT1f-141" value="1" style="text;html=1;align=center;verticalAlign=middle;resizable=0;points=[];autosize=1;strokeColor=none;fillColor=none;fontSize=16;fontColor=#000000;" vertex="1" parent="1">
          <mxGeometry x="790" y="250" width="20" height="20" as="geometry" />
        </mxCell>
      </root>
    </mxGraphModel>
  </diagram>
</mxfile>
